<svg width="32" height="32" viewBox="0 0 32 32" fill="none" xmlns="http://www.w3.org/2000/svg">
<path d="M20 30.3333H12C4.76002 30.3333 1.66669 27.24 1.66669 20V12C1.66669 4.76 4.76002 1.66666 12 1.66666H20C27.24 1.66666 30.3334 4.76 30.3334 12V20C30.3334 27.24 27.24 30.3333 20 30.3333ZM12 3.66666C5.85335 3.66666 3.66669 5.85333 3.66669 12V20C3.66669 26.1467 5.85335 28.3333 12 28.3333H20C26.1467 28.3333 28.3334 26.1467 28.3334 20V12C28.3334 5.85333 26.1467 3.66666 20 3.66666H12Z" fill="#121212"/>
<path d="M14.32 21.7067C14.0667 21.7067 13.8134 21.6133 13.6134 21.4133C13.2267 21.0267 13.2267 20.3867 13.6134 20L17.6134 16L13.6134 12C13.2267 11.6133 13.2267 10.9733 13.6134 10.5867C14 10.2 14.64 10.2 15.0267 10.5867L19.7334 15.2933C20.12 15.68 20.12 16.32 19.7334 16.7067L15.0267 21.4133C14.8267 21.6133 14.5734 21.7067 14.32 21.7067Z" fill="#121212"/>
</svg>
