<svg width="25" height="24" viewBox="0 0 25 24" fill="none" xmlns="http://www.w3.org/2000/svg">
<path d="M15.3333 22.75H9.33325C3.90325 22.75 1.58325 20.43 1.58325 15V9C1.58325 3.57 3.90325 1.25 9.33325 1.25H14.3333C14.7433 1.25 15.0833 1.59 15.0833 2C15.0833 2.41 14.7433 2.75 14.3333 2.75H9.33325C4.72325 2.75 3.08325 4.39 3.08325 9V15C3.08325 19.61 4.72325 21.25 9.33325 21.25H15.3333C19.9433 21.25 21.5833 19.61 21.5833 15V10C21.5833 9.59 21.9233 9.25 22.3333 9.25C22.7433 9.25 23.0833 9.59 23.0833 10V15C23.0833 20.43 20.7633 22.75 15.3333 22.75Z" fill="#666666"/>
<path d="M22.3333 10.75H18.3333C14.9133 10.75 13.5833 9.41999 13.5833 5.99999V1.99999C13.5833 1.69999 13.7633 1.41999 14.0433 1.30999C14.3233 1.18999 14.6433 1.25999 14.8633 1.46999L22.8633 9.46999C23.0733 9.67999 23.1433 10.01 23.0233 10.29C22.9033 10.57 22.6333 10.75 22.3333 10.75ZM15.0833 3.80999V5.99999C15.0833 8.57999 15.7533 9.24999 18.3333 9.24999H20.5233L15.0833 3.80999Z" fill="#666666"/>
<path d="M13.3333 13.75H7.33325C6.92325 13.75 6.58325 13.41 6.58325 13C6.58325 12.59 6.92325 12.25 7.33325 12.25H13.3333C13.7433 12.25 14.0833 12.59 14.0833 13C14.0833 13.41 13.7433 13.75 13.3333 13.75Z" fill="#666666"/>
<path d="M11.3333 17.75H7.33325C6.92325 17.75 6.58325 17.41 6.58325 17C6.58325 16.59 6.92325 16.25 7.33325 16.25H11.3333C11.7433 16.25 12.0833 16.59 12.0833 17C12.0833 17.41 11.7433 17.75 11.3333 17.75Z" fill="#666666"/>
</svg>
