<svg width="60" height="60" viewBox="0 0 60 60" fill="none" xmlns="http://www.w3.org/2000/svg">
<rect x="0.5" y="0.5" width="59" height="59" rx="29.5" fill="white"/>
<rect x="0.5" y="0.5" width="59" height="59" rx="29.5" stroke="#721566"/>
<path d="M25.5002 14.3751H28.5002C28.8391 14.3751 29.1252 14.6612 29.1252 15.0001C29.1252 15.3389 28.8391 15.6251 28.5002 15.6251H25.5002C22.0075 15.6251 19.4912 16.2415 17.8665 17.8663C16.2417 19.491 15.6252 22.0073 15.6252 25.5001V34.5001C15.6252 37.9928 16.2417 40.5091 17.8665 42.1339C19.4912 43.7586 22.0075 44.3751 25.5002 44.3751H34.5002C37.993 44.3751 40.5093 43.7586 42.134 42.1339C43.7588 40.5091 44.3752 37.9928 44.3752 34.5001V31.5001C44.3752 31.1612 44.6614 30.8751 45.0002 30.8751C45.3391 30.8751 45.6252 31.1612 45.6252 31.5001V34.5001C45.6252 38.5152 44.7659 41.2617 43.0139 43.0137C41.2619 44.7657 38.5153 45.6251 34.5002 45.6251H25.5002C21.4851 45.6251 18.7386 44.7657 16.9866 43.0137C15.2346 41.2617 14.3752 38.5152 14.3752 34.5001V25.5001C14.3752 21.485 15.2346 18.7384 16.9866 16.9864C18.7386 15.2344 21.4851 14.3751 25.5002 14.3751Z" fill="#721566" stroke="#721566"/>
<path d="M39.7649 13.9963C41.0906 13.9963 42.4747 14.6524 43.9114 16.0891C45.4799 17.6576 46.1182 19.183 45.9875 20.6506C45.8678 21.8471 45.227 23.0652 43.9133 24.3644L43.9114 24.3664L32.092 36.1867C31.5521 36.7266 30.5261 37.2451 29.7668 37.3498H29.7649L25.2493 37.9953L25.2288 37.9982L25.2083 38.0031C25.0773 38.0333 24.9378 38.0353 24.7502 38.0353C24.0558 38.0353 23.4242 37.8164 22.9319 37.425L22.7297 37.2473C22.1236 36.6383 21.8447 35.7396 21.9895 34.7521L21.9905 34.7512L22.635 30.2355L22.636 30.2336C22.7407 29.4744 23.2591 28.4483 23.7991 27.9084L35.6184 16.0891C37.0549 14.6525 38.4393 13.9964 39.7649 13.9963ZM39.47 15.2668C38.3545 15.37 37.3957 16.085 36.5032 16.9699L24.6819 28.7912C24.4856 28.9875 24.3037 29.2772 24.1672 29.548C24.0307 29.819 23.9078 30.1356 23.8665 30.4045L23.8655 30.4094L23.22 34.924V34.9269C23.1473 35.4538 23.2427 35.9944 23.6165 36.3683C23.9905 36.7424 24.5318 36.8385 25.0588 36.7658L25.0608 36.7648L29.5764 36.1203L29.5813 36.1193C29.8488 36.0782 30.1681 35.9563 30.4417 35.8195C30.708 35.6864 30.9983 35.5039 31.1926 35.3029L31.1936 35.3039L43.0139 23.4836C44.0194 22.4781 44.627 21.5035 44.718 20.5207C44.8282 19.3256 44.193 18.1519 43.0159 16.9592L43.0139 16.9562L42.7805 16.7307C41.6205 15.6417 40.5422 15.1676 39.47 15.2668Z" fill="#721566" stroke="#721566"/>
<path d="M34.2041 17.5953C34.539 17.5067 34.8726 17.6994 34.9629 18.0279L34.9639 18.0308C35.9111 21.3932 38.5771 24.0592 41.9395 25.0064L41.9424 25.0074C42.2671 25.0967 42.4673 25.4448 42.373 25.7877L42.3721 25.7916C42.2985 26.0696 42.0568 26.2447 41.7754 26.2447C41.7145 26.2447 41.6644 26.2353 41.6338 26.2252L41.6221 26.2222L41.6104 26.2183C37.9512 25.1886 35.018 22.3374 33.8721 18.7261L33.7666 18.3746C33.6771 18.0432 33.8641 17.7 34.2041 17.5953Z" fill="#721566" stroke="#721566"/>
</svg>
