<svg width="120" height="120" viewBox="0 0 120 120" fill="none" xmlns="http://www.w3.org/2000/svg">
<path d="M96.25 13.75H23.75C18.25 13.75 13.75 18.25 13.75 23.75V96.25C13.75 101.75 18.25 106.25 23.75 106.25H80.8368V80.8368H106.25V23.75C106.25 18.25 101.75 13.75 96.25 13.75Z" stroke="url(#paint0_linear_27_351)" stroke-width="2" stroke-linecap="round" stroke-linejoin="round"/>
<path d="M106.25 80.8367L80.8367 106.25" stroke="url(#paint1_linear_27_351)" stroke-width="2" stroke-linecap="round" stroke-linejoin="round"/>
<path d="M13.75 29.5237H106.25" stroke="url(#paint2_linear_27_351)" stroke-width="2" stroke-linecap="round" stroke-linejoin="round"/>
<path d="M60 48.1455L56.8598 45.0052C52.746 40.8915 46.0033 40.8915 41.8893 45.0052C37.7755 49.119 37.7755 55.8617 41.8893 59.9757L45.0295 63.116" stroke="url(#paint3_linear_27_351)" stroke-width="2" stroke-linecap="round" stroke-linejoin="round"/>
<path d="M74.9705 63.1157L78.1108 59.9755C82.2245 55.8617 82.2245 49.119 78.1108 45.005C73.997 40.8912 67.2542 40.8912 63.1402 45.005L60 48.145" stroke="url(#paint4_linear_27_351)" stroke-width="2" stroke-linecap="round" stroke-linejoin="round"/>
<path d="M45.0295 63.1157L60 78.0862L74.9705 63.1157" stroke="url(#paint5_linear_27_351)" stroke-width="2" stroke-linecap="round" stroke-linejoin="round"/>
<defs>
<linearGradient id="paint0_linear_27_351" x1="60" y1="13.75" x2="60" y2="106.25" gradientUnits="userSpaceOnUse">
<stop/>
<stop offset="0.475962" stop-color="#470D3F"/>
<stop offset="1" stop-color="#961C85"/>
</linearGradient>
<linearGradient id="paint1_linear_27_351" x1="93.5433" y1="80.8367" x2="93.5433" y2="106.25" gradientUnits="userSpaceOnUse">
<stop/>
<stop offset="0.475962" stop-color="#470D3F"/>
<stop offset="1" stop-color="#961C85"/>
</linearGradient>
<linearGradient id="paint2_linear_27_351" x1="60" y1="29.5237" x2="60" y2="30.5237" gradientUnits="userSpaceOnUse">
<stop/>
<stop offset="0.475962" stop-color="#470D3F"/>
<stop offset="1" stop-color="#961C85"/>
</linearGradient>
<linearGradient id="paint3_linear_27_351" x1="49.402" y1="41.9199" x2="49.402" y2="63.116" gradientUnits="userSpaceOnUse">
<stop/>
<stop offset="0.475962" stop-color="#470D3F"/>
<stop offset="1" stop-color="#961C85"/>
</linearGradient>
<linearGradient id="paint4_linear_27_351" x1="70.598" y1="41.9197" x2="70.598" y2="63.1157" gradientUnits="userSpaceOnUse">
<stop/>
<stop offset="0.475962" stop-color="#470D3F"/>
<stop offset="1" stop-color="#961C85"/>
</linearGradient>
<linearGradient id="paint5_linear_27_351" x1="60" y1="63.1157" x2="60" y2="78.0862" gradientUnits="userSpaceOnUse">
<stop/>
<stop offset="0.475962" stop-color="#470D3F"/>
<stop offset="1" stop-color="#961C85"/>
</linearGradient>
</defs>
</svg>
